<svg width="1216" height="48" viewBox="0 0 1216 48" fill="none" xmlns="http://www.w3.org/2000/svg">
<g opacity="0.7">
<path fill-rule="evenodd" clip-rule="evenodd" d="M30 46C42.1503 46 52 36.1503 52 24C52 11.8497 42.1503 2 30 2C17.8497 2 8 11.8497 8 24C8 36.1503 17.8497 46 30 46ZM36.8632 12.2485C37.1973 11.0619 36.0457 10.3601 34.994 11.1094L20.3124 21.5685C19.1718 22.3811 19.3512 24 20.5819 24H24.448V23.9701H31.9828L25.8433 26.1363L23.1368 35.7515C22.8027 36.9382 23.9542 37.6399 25.006 36.8906L39.6876 26.4315C40.8282 25.619 40.6487 24 39.4181 24H33.5553L36.8632 12.2485Z" fill="#155EEF"/>
<path d="M63.38 33.9091V30.4291H66.14V16.3891H63.38V12.9091H74.18C75.46 12.9091 76.57 13.1291 77.51 13.5691C78.47 13.9891 79.21 14.5991 79.73 15.3991C80.27 16.1791 80.54 17.1191 80.54 18.2191V18.5191C80.54 19.4791 80.36 20.2691 80 20.8891C79.64 21.4891 79.21 21.9591 78.71 22.2991C78.23 22.6191 77.77 22.8491 77.33 22.9891V23.5291C77.77 23.6491 78.25 23.8791 78.77 24.2191C79.29 24.5391 79.73 25.0091 80.09 25.6291C80.47 26.2491 80.66 27.0591 80.66 28.0591V28.3591C80.66 29.5191 80.39 30.5191 79.85 31.3591C79.31 32.1791 78.56 32.8091 77.6 33.2491C76.66 33.6891 75.56 33.9091 74.3 33.9091H63.38ZM70.1 30.3091H73.82C74.68 30.3091 75.37 30.0991 75.89 29.6791C76.43 29.2591 76.7 28.6591 76.7 27.8791V27.5791C76.7 26.7991 76.44 26.1991 75.92 25.7791C75.4 25.3591 74.7 25.1491 73.82 25.1491H70.1V30.3091ZM70.1 21.5491H73.76C74.58 21.5491 75.25 21.3391 75.77 20.9191C76.31 20.4991 76.58 19.9191 76.58 19.1791V18.8791C76.58 18.1191 76.32 17.5391 75.8 17.1391C75.28 16.7191 74.6 16.5091 73.76 16.5091H70.1V21.5491Z" fill="#101828"/>
<path d="M89.6019 34.3291C88.1219 34.3291 86.7919 34.0291 85.6119 33.4291C84.4319 32.8291 83.5019 31.9591 82.8219 30.8191C82.1419 29.6791 81.8019 28.3091 81.8019 26.7091V26.2291C81.8019 24.6291 82.1419 23.2591 82.8219 22.1191C83.5019 20.9791 84.4319 20.1091 85.6119 19.5091C86.7919 18.9091 88.1219 18.6091 89.6019 18.6091C91.0819 18.6091 92.4119 18.9091 93.5919 19.5091C94.7719 20.1091 95.7019 20.9791 96.3819 22.1191C97.0619 23.2591 97.4019 24.6291 97.4019 26.2291V26.7091C97.4019 28.3091 97.0619 29.6791 96.3819 30.8191C95.7019 31.9591 94.7719 32.8291 93.5919 33.4291C92.4119 34.0291 91.0819 34.3291 89.6019 34.3291ZM89.6019 30.9691C90.7619 30.9691 91.7219 30.5991 92.4819 29.8591C93.2419 29.0991 93.6219 28.0191 93.6219 26.6191V26.3191C93.6219 24.9191 93.2419 23.8491 92.4819 23.1091C91.7419 22.3491 90.7819 21.9691 89.6019 21.9691C88.4419 21.9691 87.4819 22.3491 86.7219 23.1091C85.9619 23.8491 85.5819 24.9191 85.5819 26.3191V26.6191C85.5819 28.0191 85.9619 29.0991 86.7219 29.8591C87.4819 30.5991 88.4419 30.9691 89.6019 30.9691Z" fill="#101828"/>
<path d="M99.391 33.9091V12.9091H103.171V33.9091H99.391Z" fill="#101828"/>
<path d="M111.56 33.9091C110.58 33.9091 109.78 33.6091 109.16 33.0091C108.56 32.3891 108.26 31.5691 108.26 30.5491V22.1491H104.54V19.0291H108.26V14.4091H112.04V19.0291H116.12V22.1491H112.04V29.8891C112.04 30.4891 112.32 30.7891 112.88 30.7891H115.76V33.9091H111.56Z" fill="#101828"/>
<path d="M124.221 34.3291C122.281 34.3291 120.691 33.9091 119.451 33.0691C118.211 32.2291 117.461 31.0291 117.201 29.4691L120.681 28.5691C120.821 29.2691 121.051 29.8191 121.371 30.2191C121.711 30.6191 122.121 30.9091 122.601 31.0891C123.101 31.2491 123.641 31.3291 124.221 31.3291C125.101 31.3291 125.751 31.1791 126.171 30.8791C126.591 30.5591 126.801 30.1691 126.801 29.7091C126.801 29.2491 126.601 28.8991 126.201 28.6591C125.801 28.3991 125.161 28.1891 124.281 28.0291L123.441 27.8791C122.401 27.6791 121.451 27.4091 120.591 27.0691C119.731 26.7091 119.041 26.2191 118.521 25.5991C118.001 24.9791 117.741 24.1791 117.741 23.1991C117.741 21.7191 118.281 20.5891 119.361 19.8091C120.441 19.0091 121.861 18.6091 123.621 18.6091C125.281 18.6091 126.661 18.9791 127.761 19.7191C128.861 20.4591 129.581 21.4291 129.921 22.6291L126.411 23.7091C126.251 22.9491 125.921 22.4091 125.421 22.0891C124.941 21.7691 124.341 21.6091 123.621 21.6091C122.901 21.6091 122.351 21.7391 121.971 21.9991C121.591 22.2391 121.401 22.5791 121.401 23.0191C121.401 23.4991 121.601 23.8591 122.001 24.0991C122.401 24.3191 122.941 24.4891 123.621 24.6091L124.461 24.7591C125.581 24.9591 126.591 25.2291 127.491 25.5691C128.411 25.8891 129.131 26.3591 129.651 26.9791C130.191 27.5791 130.461 28.3991 130.461 29.4391C130.461 30.9991 129.891 32.2091 128.751 33.0691C127.631 33.9091 126.121 34.3291 124.221 34.3291Z" fill="#101828"/>
<path d="M132.274 33.9091V12.9091H136.054V20.8591H136.594C136.754 20.5391 137.004 20.2191 137.344 19.8991C137.684 19.5791 138.134 19.3191 138.694 19.1191C139.274 18.8991 140.004 18.7891 140.884 18.7891C142.044 18.7891 143.054 19.0591 143.914 19.5991C144.794 20.1191 145.474 20.8491 145.954 21.7891C146.434 22.7091 146.674 23.7891 146.674 25.0291V33.9091H142.894V25.3291C142.894 24.2091 142.614 23.3691 142.054 22.8091C141.514 22.2491 140.734 21.9691 139.714 21.9691C138.554 21.9691 137.654 22.3591 137.014 23.1391C136.374 23.8991 136.054 24.9691 136.054 26.3491V33.9091H132.274Z" fill="#101828"/>
<path d="M149.26 33.9091V19.0291H153.04V33.9091H149.26ZM151.15 17.2891C150.47 17.2891 149.89 17.0691 149.41 16.6291C148.95 16.1891 148.72 15.6091 148.72 14.8891C148.72 14.1691 148.95 13.5891 149.41 13.1491C149.89 12.7091 150.47 12.4891 151.15 12.4891C151.85 12.4891 152.43 12.7091 152.89 13.1491C153.35 13.5891 153.58 14.1691 153.58 14.8891C153.58 15.6091 153.35 16.1891 152.89 16.6291C152.43 17.0691 151.85 17.2891 151.15 17.2891Z" fill="#101828"/>
<path d="M158.189 33.9091V22.1491H154.409V19.0291H158.189V16.2691C158.189 15.2491 158.489 14.4391 159.089 13.8391C159.709 13.2191 160.509 12.9091 161.489 12.9091H165.389V16.0291H162.809C162.249 16.0291 161.969 16.3291 161.969 16.9291V19.0291H165.869V22.1491H161.969V33.9091H158.189Z" fill="#101828"/>
<path d="M172.702 33.9091C171.722 33.9091 170.922 33.6091 170.302 33.0091C169.702 32.3891 169.402 31.5691 169.402 30.5491V22.1491H165.682V19.0291H169.402V14.4091H173.182V19.0291H177.262V22.1491H173.182V29.8891C173.182 30.4891 173.462 30.7891 174.022 30.7891H176.902V33.9091H172.702Z" fill="#101828"/>
<path fill-rule="evenodd" clip-rule="evenodd" d="M221.765 3.4479C221.26 3.34403 220.74 3.34403 220.235 3.4479C219.651 3.56797 219.129 3.86023 218.714 4.09258L218.601 4.15574L204.542 11.9666C204.503 11.9882 204.463 12.0102 204.422 12.0328C203.982 12.2747 203.43 12.5788 203.006 13.0389C202.64 13.4368 202.362 13.9082 202.193 14.4219C201.996 15.016 201.999 15.6464 202 16.1477C202.001 16.1946 202.001 16.2403 202.001 16.2847V31.7067C202.001 31.7511 202.001 31.7969 202 31.8437C201.999 32.3451 201.996 32.9754 202.193 33.5695C202.362 34.0832 202.64 34.5547 203.006 34.9525C203.43 35.4126 203.982 35.7167 204.422 35.9586C204.463 35.9812 204.503 36.0033 204.542 36.0249L218.601 43.8357L218.714 43.8988C219.129 44.1312 219.651 44.4235 220.235 44.5435C220.74 44.6474 221.26 44.6474 221.765 44.5435C222.349 44.4235 222.871 44.1312 223.286 43.8988L223.399 43.8357L237.458 36.0249C237.476 36.0153 237.493 36.0057 237.511 35.9959C237.533 35.9837 237.556 35.9712 237.578 35.9586C238.018 35.7167 238.57 35.4126 238.994 34.9525C239.36 34.5547 239.638 34.0832 239.807 33.5695C240.004 32.9754 240.001 32.3451 240 31.8437C239.999 31.7969 239.999 31.7511 239.999 31.7067V16.2847C239.999 16.2403 239.999 16.1946 240 16.1477C240.001 15.6464 240.004 15.016 239.807 14.4219C239.638 13.9082 239.36 13.4367 238.994 13.0389C238.57 12.5788 238.018 12.2747 237.578 12.0328L237.577 12.032C237.536 12.0097 237.497 11.9879 237.458 11.9666L223.399 4.15574L223.286 4.09257C222.871 3.86022 222.349 3.56797 221.765 3.4479ZM220.446 7.47742C220.734 7.31746 220.881 7.23664 220.991 7.18376L221 7.17941L221.009 7.18376C221.119 7.23664 221.266 7.31746 221.554 7.47742L234.187 14.496L221 21.8222L207.813 14.4961L220.446 7.47742ZM205.801 17.725L219.1 25.1136L219.1 39.766L206.387 32.7032C206.083 32.5343 205.928 32.4472 205.819 32.3779L205.81 32.372L205.809 32.3611C205.801 32.2323 205.801 32.0543 205.801 31.7067V17.725Z" fill="#101828"/>
<path d="M257.291 30.3452H263.339V33.9092H252.674V14.9552H257.291V30.3452Z" fill="#101828"/>
<path d="M267.593 17.2772C266.783 17.2772 266.117 17.0432 265.595 16.5752C265.091 16.0892 264.839 15.4952 264.839 14.7932C264.839 14.0732 265.091 13.4792 265.595 13.0112C266.117 12.5252 266.783 12.2822 267.593 12.2822C268.385 12.2822 269.033 12.5252 269.537 13.0112C270.059 13.4792 270.32 14.0732 270.32 14.7932C270.32 15.4952 270.059 16.0892 269.537 16.5752C269.033 17.0432 268.385 17.2772 267.593 17.2772ZM269.888 18.8432V33.9092H265.271V18.8432H269.888Z" fill="#101828"/>
<path d="M278.688 18.6272C279.75 18.6272 280.677 18.8432 281.469 19.2752C282.279 19.7072 282.9 20.2742 283.332 20.9762V18.8432H287.949V33.8822C287.949 35.2682 287.67 36.5192 287.112 37.6352C286.572 38.7692 285.735 39.6692 284.601 40.3352C283.485 41.0012 282.09 41.3342 280.416 41.3342C278.184 41.3342 276.375 40.8032 274.989 39.7412C273.603 38.6972 272.811 37.2752 272.613 35.4752H277.176C277.32 36.0512 277.662 36.5012 278.202 36.8252C278.742 37.1672 279.408 37.3382 280.2 37.3382C281.154 37.3382 281.91 37.0592 282.468 36.5012C283.044 35.9612 283.332 35.0882 283.332 33.8822V31.7492C282.882 32.4512 282.261 33.0272 281.469 33.4772C280.677 33.9092 279.75 34.1252 278.688 34.1252C277.446 34.1252 276.321 33.8102 275.313 33.1802C274.305 32.5322 273.504 31.6232 272.91 30.4532C272.334 29.2652 272.046 27.8972 272.046 26.3492C272.046 24.8012 272.334 23.4422 272.91 22.2722C273.504 21.1022 274.305 20.2022 275.313 19.5722C276.321 18.9422 277.446 18.6272 278.688 18.6272ZM283.332 26.3762C283.332 25.2242 283.008 24.3152 282.36 23.6492C281.73 22.9832 280.956 22.6502 280.038 22.6502C279.12 22.6502 278.337 22.9832 277.689 23.6492C277.059 24.2972 276.744 25.1972 276.744 26.3492C276.744 27.5012 277.059 28.4192 277.689 29.1032C278.337 29.7692 279.12 30.1022 280.038 30.1022C280.956 30.1022 281.73 29.7692 282.36 29.1032C283.008 28.4372 283.332 27.5282 283.332 26.3762Z" fill="#101828"/>
<path d="M300.28 18.6812C302.008 18.6812 303.394 19.2572 304.438 20.4092C305.482 21.5432 306.004 23.1092 306.004 25.1072V33.9092H301.414V25.7282C301.414 24.7202 301.153 23.9372 300.631 23.3792C300.109 22.8212 299.407 22.5422 298.525 22.5422C297.643 22.5422 296.941 22.8212 296.419 23.3792C295.897 23.9372 295.636 24.7202 295.636 25.7282V33.9092H291.019V13.9292H295.636V20.8682C296.104 20.2022 296.743 19.6712 297.553 19.2752C298.363 18.8792 299.272 18.6812 300.28 18.6812Z" fill="#101828"/>
<path d="M317.34 29.9942V33.9092H314.991C313.317 33.9092 312.012 33.5042 311.076 32.6942C310.14 31.8662 309.672 30.5252 309.672 28.6712V22.6772H307.836V18.8432H309.672V15.1712H314.289V18.8432H317.313V22.6772H314.289V28.7252C314.289 29.1752 314.397 29.4992 314.613 29.6972C314.829 29.8952 315.189 29.9942 315.693 29.9942H317.34Z" fill="#101828"/>
<path d="M324.258 20.9762C324.69 20.2742 325.311 19.7072 326.121 19.2752C326.931 18.8432 327.858 18.6272 328.902 18.6272C330.144 18.6272 331.269 18.9422 332.277 19.5722C333.285 20.2022 334.077 21.1022 334.653 22.2722C335.247 23.4422 335.544 24.8012 335.544 26.3492C335.544 27.8972 335.247 29.2652 334.653 30.4532C334.077 31.6232 333.285 32.5322 332.277 33.1802C331.269 33.8102 330.144 34.1252 328.902 34.1252C327.84 34.1252 326.913 33.9182 326.121 33.5042C325.329 33.0722 324.708 32.5052 324.258 31.8032V33.9092H319.641V13.9292H324.258V20.9762ZM330.846 26.3492C330.846 25.1972 330.522 24.2972 329.874 23.6492C329.244 22.9832 328.461 22.6502 327.525 22.6502C326.607 22.6502 325.824 22.9832 325.176 23.6492C324.546 24.3152 324.231 25.2242 324.231 26.3762C324.231 27.5282 324.546 28.4372 325.176 29.1032C325.824 29.7692 326.607 30.1022 327.525 30.1022C328.443 30.1022 329.226 29.7692 329.874 29.1032C330.522 28.4192 330.846 27.5012 330.846 26.3492Z" fill="#101828"/>
<path d="M344.555 34.1252C343.079 34.1252 341.747 33.8102 340.559 33.1802C339.389 32.5502 338.462 31.6502 337.778 30.4802C337.112 29.3102 336.779 27.9422 336.779 26.3762C336.779 24.8282 337.121 23.4692 337.805 22.2992C338.489 21.1112 339.425 20.2022 340.613 19.5722C341.801 18.9422 343.133 18.6272 344.609 18.6272C346.085 18.6272 347.417 18.9422 348.605 19.5722C349.793 20.2022 350.729 21.1112 351.413 22.2992C352.097 23.4692 352.439 24.8282 352.439 26.3762C352.439 27.9242 352.088 29.2922 351.386 30.4802C350.702 31.6502 349.757 32.5502 348.551 33.1802C347.363 33.8102 346.031 34.1252 344.555 34.1252ZM344.555 30.1292C345.437 30.1292 346.184 29.8052 346.796 29.1572C347.426 28.5092 347.741 27.5822 347.741 26.3762C347.741 25.1702 347.435 24.2432 346.823 23.5952C346.229 22.9472 345.491 22.6232 344.609 22.6232C343.709 22.6232 342.962 22.9472 342.368 23.5952C341.774 24.2252 341.477 25.1522 341.477 26.3762C341.477 27.5822 341.765 28.5092 342.341 29.1572C342.935 29.8052 343.673 30.1292 344.555 30.1292Z" fill="#101828"/>
<path d="M363.528 33.9092L360.639 29.7242L358.209 33.9092H353.214L358.182 26.2142L353.079 18.8432H358.263L361.152 23.0012L363.582 18.8432H368.577L363.528 26.4302L368.712 33.9092H363.528Z" fill="#101828"/>
<path d="M429.307 11.1631C428.874 10.7309 428.442 10.2986 428.01 9.86642C426.713 8.48331 425.33 7.10021 423.601 6.23577C421.613 5.19844 419.452 5.45777 417.291 5.45777C414.006 5.45777 405.794 5.45777 400.953 5.45777L404.238 9.86642C410.202 9.86642 419.538 9.86642 423.861 9.86642C425.676 9.86642 427.232 10.2122 428.701 11.1631C428.961 11.2495 429.22 11.2495 429.307 11.1631Z" fill="#66C61C"/>
<path d="M432.937 18.2517C432.505 17.8195 432.073 17.3873 431.641 16.955C430.344 15.5719 428.961 14.1888 427.232 13.3244C425.244 12.2871 423.083 12.5464 420.921 12.5464C418.069 12.5464 411.24 12.5464 406.399 12.5464L409.684 16.955C415.562 16.955 423.601 16.955 427.578 16.955C429.393 16.955 430.949 17.3008 432.419 18.2517C432.591 18.3381 432.764 18.3381 432.937 18.2517Z" fill="#4CA30D"/>
<path d="M437 25.167C436.568 24.7348 436.136 24.3025 435.703 23.8703C434.407 22.4872 433.024 21.1041 431.295 20.2397C429.307 19.2023 427.145 19.4617 424.984 19.4617C422.305 19.4617 416.426 19.4617 411.672 19.4617L414.957 23.8703C420.662 23.8703 427.923 23.8703 431.554 23.8703C433.369 23.8703 434.925 24.2161 436.395 25.167C436.654 25.2534 436.827 25.3399 437 25.167Z" fill="#3B7C0F"/>
<path d="M400.607 36.8368C401.039 37.269 401.472 37.7012 401.904 38.1335C403.2 39.5166 404.584 40.8997 406.312 41.7641C408.301 42.8014 410.462 42.5421 412.623 42.5421H428.961L425.676 38.1335C419.711 38.1335 410.375 38.1335 406.053 38.1335C404.238 38.1335 402.682 37.7877 401.212 36.8368C400.953 36.7504 400.78 36.7504 400.607 36.8368Z" fill="#66C61C"/>
<path d="M396.976 29.7487C397.409 30.1809 397.841 30.6131 398.273 31.0453C399.57 32.4284 400.953 33.8116 402.682 34.676C404.67 35.7133 406.831 35.454 408.992 35.454H423.515L420.23 31.0453C414.352 31.0453 406.312 31.0453 402.336 31.0453C400.521 31.0453 398.965 30.6996 397.495 29.7487C397.322 29.6622 397.149 29.6622 396.976 29.7487Z" fill="#4CA30D"/>
<path d="M393 22.7465C393.432 23.1787 393.864 23.6109 394.297 24.0431C395.593 25.4262 396.976 26.8094 398.705 27.6738C400.694 28.7111 402.855 28.4518 405.016 28.4518H418.328L415.043 24.0431C409.338 24.0431 402.077 24.0431 398.446 24.0431C396.631 24.0431 395.075 23.6974 393.605 22.7465C393.346 22.66 393.173 22.66 393 22.7465Z" fill="#3B7C0F"/>
<path d="M446.932 14.0081V34.0001H451.328V25.7401H459.7V22.3241H451.328V17.7041H460.988V14.0081H446.932Z" fill="#101828"/>
<path d="M472.014 25.2081H465.546C465.564 24.9281 465.62 24.6107 465.714 24.2561C465.826 23.9014 466.003 23.5654 466.246 23.2481C466.507 22.9307 466.843 22.6694 467.254 22.4641C467.683 22.2401 468.215 22.1281 468.85 22.1281C469.82 22.1281 470.539 22.3894 471.006 22.9121C471.491 23.4347 471.827 24.2001 472.014 25.2081ZM465.546 27.7281H475.99C476.064 26.6081 475.971 25.5347 475.71 24.5081C475.448 23.4814 475.019 22.5667 474.422 21.7641C473.843 20.9614 473.096 20.3267 472.182 19.8601C471.267 19.3747 470.194 19.1321 468.962 19.1321C467.86 19.1321 466.852 19.3281 465.938 19.7201C465.042 20.1121 464.267 20.6534 463.614 21.3441C462.96 22.0161 462.456 22.8187 462.102 23.7521C461.747 24.6854 461.57 25.6934 461.57 26.7761C461.57 27.8961 461.738 28.9227 462.074 29.8561C462.428 30.7894 462.923 31.5921 463.558 32.2641C464.192 32.9361 464.967 33.4587 465.882 33.8321C466.796 34.1867 467.823 34.3641 468.962 34.3641C470.604 34.3641 472.004 33.9907 473.162 33.2441C474.319 32.4974 475.178 31.2561 475.738 29.5201H472.238C472.107 29.9681 471.752 30.3974 471.174 30.8081C470.595 31.2001 469.904 31.3961 469.102 31.3961C467.982 31.3961 467.123 31.1067 466.526 30.5281C465.928 29.9494 465.602 29.0161 465.546 27.7281Z" fill="#101828"/>
<path d="M477.34 23.9761C477.396 23.0427 477.629 22.2681 478.04 21.6521C478.45 21.0361 478.973 20.5414 479.608 20.1681C480.242 19.7947 480.952 19.5334 481.736 19.3841C482.538 19.2161 483.341 19.1321 484.144 19.1321C484.872 19.1321 485.609 19.1881 486.356 19.3001C487.102 19.3934 487.784 19.5894 488.4 19.8881C489.016 20.1867 489.52 20.6067 489.912 21.1481C490.304 21.6707 490.5 22.3707 490.5 23.2481V30.7801C490.5 31.4334 490.537 32.0587 490.612 32.6561C490.686 33.2534 490.817 33.7014 491.004 34.0001H486.972C486.897 33.7761 486.832 33.5521 486.776 33.3281C486.738 33.0854 486.71 32.8427 486.692 32.6001C486.057 33.2534 485.31 33.7107 484.452 33.9721C483.593 34.2334 482.716 34.3641 481.82 34.3641C481.129 34.3641 480.485 34.2801 479.888 34.1121C479.29 33.9441 478.768 33.6827 478.32 33.3281C477.872 32.9734 477.517 32.5254 477.256 31.9841C477.013 31.4427 476.892 30.7987 476.892 30.0521C476.892 29.2307 477.032 28.5587 477.312 28.0361C477.61 27.4947 477.984 27.0654 478.432 26.7481C478.898 26.4307 479.421 26.1974 480 26.0481C480.597 25.8801 481.194 25.7494 481.792 25.6561C482.389 25.5627 482.977 25.4881 483.556 25.4321C484.134 25.3761 484.648 25.2921 485.096 25.1801C485.544 25.0681 485.898 24.9094 486.16 24.7041C486.421 24.4801 486.542 24.1627 486.524 23.7521C486.524 23.3227 486.449 22.9867 486.3 22.7441C486.169 22.4827 485.982 22.2867 485.74 22.1561C485.516 22.0067 485.245 21.9134 484.928 21.8761C484.629 21.8201 484.302 21.7921 483.948 21.7921C483.164 21.7921 482.548 21.9601 482.1 22.2961C481.652 22.6321 481.39 23.1921 481.316 23.9761H477.34ZM486.524 26.9161C486.356 27.0654 486.141 27.1867 485.88 27.2801C485.637 27.3547 485.366 27.4201 485.068 27.4761C484.788 27.5321 484.489 27.5787 484.172 27.6161C483.854 27.6534 483.537 27.7001 483.22 27.7561C482.921 27.8121 482.622 27.8867 482.324 27.9801C482.044 28.0734 481.792 28.2041 481.568 28.3721C481.362 28.5214 481.194 28.7174 481.064 28.9601C480.933 29.2027 480.868 29.5107 480.868 29.8841C480.868 30.2387 480.933 30.5374 481.064 30.7801C481.194 31.0227 481.372 31.2187 481.596 31.3681C481.82 31.4987 482.081 31.5921 482.38 31.6481C482.678 31.7041 482.986 31.7321 483.304 31.7321C484.088 31.7321 484.694 31.6014 485.124 31.3401C485.553 31.0787 485.87 30.7707 486.076 30.4161C486.281 30.0427 486.402 29.6694 486.44 29.2961C486.496 28.9227 486.524 28.6241 486.524 28.4001V26.9161Z" fill="#101828"/>
<path d="M497.786 19.5241V15.1841H493.81V19.5241H491.402V22.1841H493.81V30.7241C493.81 31.4521 493.931 32.0401 494.174 32.4881C494.417 32.9361 494.743 33.2814 495.154 33.5241C495.583 33.7667 496.069 33.9254 496.61 34.0001C497.17 34.0934 497.758 34.1401 498.374 34.1401C498.766 34.1401 499.167 34.1307 499.578 34.1121C499.989 34.0934 500.362 34.0561 500.698 34.0001V30.9201C500.511 30.9574 500.315 30.9854 500.11 31.0041C499.905 31.0227 499.69 31.0321 499.466 31.0321C498.794 31.0321 498.346 30.9201 498.122 30.6961C497.898 30.4721 497.786 30.0241 497.786 29.3521V22.1841H500.698V19.5241H497.786Z" fill="#101828"/>
<path d="M501.75 14.0081V34.0001H505.726V26.4121C505.726 24.9374 505.968 23.8827 506.454 23.2481C506.939 22.5947 507.723 22.2681 508.806 22.2681C509.758 22.2681 510.42 22.5667 510.794 23.1641C511.167 23.7427 511.354 24.6294 511.354 25.8241V34.0001H515.33V25.0961C515.33 24.2001 515.246 23.3881 515.078 22.6601C514.928 21.9134 514.658 21.2881 514.266 20.7841C513.874 20.2614 513.332 19.8601 512.642 19.5801C511.97 19.2814 511.102 19.1321 510.038 19.1321C509.291 19.1321 508.526 19.3281 507.742 19.7201C506.958 20.0934 506.314 20.7001 505.81 21.5401H505.726V14.0081H501.75Z" fill="#101828"/>
<path d="M527.251 25.2081H520.783C520.802 24.9281 520.858 24.6107 520.951 24.2561C521.063 23.9014 521.241 23.5654 521.483 23.2481C521.745 22.9307 522.081 22.6694 522.491 22.4641C522.921 22.2401 523.453 22.1281 524.087 22.1281C525.058 22.1281 525.777 22.3894 526.243 22.9121C526.729 23.4347 527.065 24.2001 527.251 25.2081ZM520.783 27.7281H531.227C531.302 26.6081 531.209 25.5347 530.947 24.5081C530.686 23.4814 530.257 22.5667 529.659 21.7641C529.081 20.9614 528.334 20.3267 527.419 19.8601C526.505 19.3747 525.431 19.1321 524.199 19.1321C523.098 19.1321 522.09 19.3281 521.175 19.7201C520.279 20.1121 519.505 20.6534 518.851 21.3441C518.198 22.0161 517.694 22.8187 517.339 23.7521C516.985 24.6854 516.807 25.6934 516.807 26.7761C516.807 27.8961 516.975 28.9227 517.311 29.8561C517.666 30.7894 518.161 31.5921 518.795 32.2641C519.43 32.9361 520.205 33.4587 521.119 33.8321C522.034 34.1867 523.061 34.3641 524.199 34.3641C525.842 34.3641 527.242 33.9907 528.399 33.2441C529.557 32.4974 530.415 31.2561 530.975 29.5201H527.475C527.345 29.9681 526.99 30.3974 526.411 30.8081C525.833 31.2001 525.142 31.3961 524.339 31.3961C523.219 31.3961 522.361 31.1067 521.763 30.5281C521.166 29.9494 520.839 29.0161 520.783 27.7281Z" fill="#101828"/>
<path d="M532.745 19.5241V34.0001H536.721V27.4761C536.721 26.8227 536.787 26.2161 536.917 25.6561C537.048 25.0961 537.263 24.6107 537.561 24.2001C537.879 23.7707 538.289 23.4347 538.793 23.1921C539.297 22.9494 539.913 22.8281 540.641 22.8281C540.884 22.8281 541.136 22.8467 541.397 22.8841C541.659 22.9027 541.883 22.9307 542.069 22.9681V19.2721C541.752 19.1787 541.463 19.1321 541.201 19.1321C540.697 19.1321 540.212 19.2067 539.745 19.3561C539.279 19.5054 538.84 19.7201 538.429 20.0001C538.019 20.2614 537.655 20.5881 537.337 20.9801C537.02 21.3534 536.768 21.7641 536.581 22.2121H536.525V19.5241H532.745Z" fill="#101828"/>
<path d="M547.604 30.3041V17.7041H550.74C551.823 17.7041 552.728 17.8627 553.456 18.1801C554.203 18.4787 554.8 18.9174 555.248 19.4961C555.696 20.0747 556.014 20.7747 556.2 21.5961C556.406 22.3987 556.508 23.3041 556.508 24.3121C556.508 25.4134 556.368 26.3467 556.088 27.1121C555.808 27.8774 555.435 28.5027 554.968 28.9881C554.502 29.4547 553.97 29.7907 553.372 29.9961C552.775 30.2014 552.159 30.3041 551.524 30.3041H547.604ZM543.208 14.0081V34.0001H551.832C553.363 34.0001 554.688 33.7481 555.808 33.2441C556.947 32.7214 557.89 32.0121 558.636 31.1161C559.402 30.2201 559.971 29.1561 560.344 27.9241C560.718 26.6921 560.904 25.3481 560.904 23.8921C560.904 22.2307 560.671 20.7841 560.204 19.5521C559.756 18.3201 559.122 17.2934 558.3 16.4721C557.498 15.6507 556.536 15.0347 555.416 14.6241C554.315 14.2134 553.12 14.0081 551.832 14.0081H543.208Z" fill="#101828"/>
<path d="M572.446 25.2081H565.978C565.997 24.9281 566.053 24.6107 566.146 24.2561C566.258 23.9014 566.435 23.5654 566.678 23.2481C566.939 22.9307 567.275 22.6694 567.686 22.4641C568.116 22.2401 568.647 22.1281 569.282 22.1281C570.253 22.1281 570.971 22.3894 571.438 22.9121C571.924 23.4347 572.259 24.2001 572.446 25.2081ZM565.978 27.7281H576.422C576.497 26.6081 576.403 25.5347 576.142 24.5081C575.881 23.4814 575.451 22.5667 574.854 21.7641C574.275 20.9614 573.529 20.3267 572.614 19.8601C571.7 19.3747 570.626 19.1321 569.394 19.1321C568.293 19.1321 567.285 19.3281 566.37 19.7201C565.474 20.1121 564.7 20.6534 564.046 21.3441C563.393 22.0161 562.889 22.8187 562.534 23.7521C562.179 24.6854 562.002 25.6934 562.002 26.7761C562.002 27.8961 562.17 28.9227 562.506 29.8561C562.861 30.7894 563.355 31.5921 563.99 32.2641C564.625 32.9361 565.399 33.4587 566.314 33.8321C567.229 34.1867 568.256 34.3641 569.394 34.3641C571.037 34.3641 572.437 33.9907 573.594 33.2441C574.752 32.4974 575.61 31.2561 576.17 29.5201H572.67C572.539 29.9681 572.185 30.3974 571.606 30.8081C571.027 31.2001 570.337 31.3961 569.534 31.3961C568.414 31.3961 567.555 31.1067 566.958 30.5281C566.361 29.9494 566.034 29.0161 565.978 27.7281Z" fill="#101828"/>
<path d="M585.948 34.0001L590.848 19.5241H586.9L583.848 29.4081H583.792L580.74 19.5241H576.568L581.524 34.0001H585.948Z" fill="#101828"/>
<circle cx="637" cy="24.2499" r="20.5" stroke="#6927DA" stroke-width="3"/>
<path d="M645.132 32.3817C640.992 36.5211 636.303 39.2233 632.126 40.2972C627.912 41.3808 624.516 40.7571 622.504 38.7456C620.493 36.7342 619.869 33.3376 620.953 29.1235C622.027 24.9472 624.729 20.2576 628.868 16.1182C633.008 11.9788 637.697 9.27662 641.874 8.2027C646.088 7.11907 649.484 7.74286 651.496 9.75427C653.507 11.7657 654.131 15.1623 653.047 19.3764C651.973 23.5528 649.271 28.2423 645.132 32.3817Z" stroke="#6927DA" stroke-width="3"/>
<path d="M645.132 16.1182C649.271 20.2576 651.973 24.9471 653.047 29.1235C654.131 33.3376 653.507 36.7342 651.496 38.7456C649.484 40.757 646.087 41.3808 641.873 40.2972C637.697 39.2233 633.008 36.5211 628.868 32.3817C624.729 28.2423 622.026 23.5528 620.953 19.3764C619.869 15.1623 620.493 11.7657 622.504 9.75426C624.516 7.74285 627.912 7.11906 632.126 8.20269C636.303 9.27661 640.992 11.9788 645.132 16.1182Z" stroke="#6927DA" stroke-width="3"/>
<path d="M677.85 34.2401C682.56 34.2401 685.74 31.7801 685.74 27.8501C685.74 19.5401 674.7 23.0801 674.7 18.7001C674.7 17.4701 675.81 16.6301 677.58 16.6301C679.59 16.6301 680.85 17.7101 681 19.3601H685.29C685.17 15.3701 682.11 12.7601 677.58 12.7601C673.32 12.7601 670.32 15.2201 670.32 18.7001C670.32 26.9501 681.21 23.8001 681.21 27.9101C681.21 29.5001 679.86 30.3401 677.85 30.3401C675.63 30.3401 674.22 28.9901 674.04 26.8601H669.72C669.9 31.3301 673.08 34.2401 677.85 34.2401Z" fill="#101828"/>
<path d="M686.76 40.1201H690.93V32.6501C691.74 33.6701 693.21 34.2401 694.92 34.2401C699.27 34.2401 702.21 31.1501 702.21 26.4401C702.21 21.7301 699.51 18.6401 695.28 18.6401C693.33 18.6401 691.83 19.3601 690.93 20.5301V18.8801H686.76V40.1201ZM694.41 30.6401C692.16 30.6401 690.69 28.9601 690.69 26.4401C690.69 23.8901 692.16 22.2101 694.41 22.2101C696.6 22.2101 698.1 23.8901 698.1 26.4401C698.1 28.9601 696.6 30.6401 694.41 30.6401Z" fill="#101828"/>
<path d="M703.219 34.0001H707.389V25.7201C707.389 23.7701 708.679 22.3601 710.509 22.3601C712.249 22.3601 713.449 23.6801 713.449 25.5101V34.0001H717.619V24.5801C717.619 21.1001 715.399 18.6401 712.009 18.6401C709.909 18.6401 708.259 19.5101 707.389 20.9801V12.3101H703.219V34.0001Z" fill="#101828"/>
<path d="M729.285 28.8701C728.954 30.1601 727.845 30.8201 726.165 30.8201C724.065 30.8201 722.715 29.5001 722.415 27.3701H733.274C733.304 27.0401 733.335 26.5901 733.335 26.0201C733.335 22.5701 731.205 18.6401 725.865 18.6401C720.735 18.6401 718.395 22.5701 718.395 26.4101C718.395 30.2201 721.035 34.2401 726.165 34.2401C729.885 34.2401 732.764 32.1401 733.365 28.8701H729.285ZM725.865 21.7001C727.875 21.7001 729.045 23.0501 729.165 24.7301H722.475C722.835 22.6301 723.975 21.7001 725.865 21.7001Z" fill="#101828"/>
<path d="M744.271 22.3601V18.8801H742.119C740.289 18.8801 739.149 19.5101 738.339 21.4001V18.8801H734.139V34.0001H738.339V26.6501C738.339 24.0701 739.269 22.3601 741.339 22.3601H744.271Z" fill="#101828"/>
<path d="M758.671 18.8801H754.471V27.1601C754.471 29.0801 753.181 30.5201 751.351 30.5201C749.641 30.5201 748.441 29.2001 748.441 27.3701V18.8801H744.271V28.3001C744.271 31.7501 746.491 34.2401 749.881 34.2401C751.951 34.2401 753.631 33.3401 754.471 31.9001V34.0001H758.671V18.8801Z" fill="#101828"/>
<path d="M760.471 34.0001H764.641V12.3101H760.471V34.0001Z" fill="#101828"/>
<path d="M776.546 28.8701C776.216 30.1601 775.106 30.8201 773.426 30.8201C771.326 30.8201 769.976 29.5001 769.676 27.3701H780.536C780.566 27.0401 780.596 26.5901 780.596 26.0201C780.596 22.5701 778.466 18.6401 773.126 18.6401C767.996 18.6401 765.656 22.5701 765.656 26.4101C765.656 30.2201 768.296 34.2401 773.426 34.2401C777.146 34.2401 780.026 32.1401 780.626 28.8701H776.546ZM773.126 21.7001C775.136 21.7001 776.306 23.0501 776.426 24.7301H769.736C770.096 22.6301 771.236 21.7001 773.126 21.7001Z" fill="#101828"/>
<path d="M835.429 2H818.571L805 15.5711V32.4289L818.571 46H835.429L849 32.4289V15.5711L835.429 2ZM820.904 32.641L812.21 23.947L820.904 15.253C824.19 11.9663 829.598 11.9663 832.884 15.253L841.578 23.947L832.884 32.641C829.598 35.9277 824.296 35.9277 820.904 32.641Z" fill="#444CE7"/>
<path d="M868.34 34.2401C871.04 34.2401 873.26 32.8601 873.95 30.7901V34.0001H877.94V25.9001C877.94 24.0701 876.5 22.5101 874.55 22.5101H868.85V25.9001H872.9C873.41 25.9001 873.74 26.2301 873.74 26.7401C873.74 28.6901 871.16 30.5801 868.55 30.5801C865.07 30.5801 862.31 27.8501 862.31 23.5001C862.31 19.1501 865.07 16.6301 868.64 16.6301C871.34 16.6301 873.2 18.1001 873.53 20.3501H878C877.73 15.8501 873.95 12.7601 868.67 12.7601C863.12 12.7601 858.02 16.3301 858.02 23.5001C858.02 30.6701 862.97 34.2401 868.34 34.2401Z" fill="#101828"/>
<path d="M879.653 34.0001H883.823V12.3101H879.653V34.0001Z" fill="#101828"/>
<path d="M892.818 34.2401C897.468 34.2401 900.798 30.9401 900.798 26.4401C900.798 21.9401 897.468 18.6401 892.818 18.6401C888.168 18.6401 884.838 21.9401 884.838 26.4401C884.838 30.9401 888.168 34.2401 892.818 34.2401ZM892.818 30.6401C890.568 30.6401 889.038 28.9301 889.038 26.4401C889.038 23.9201 890.568 22.2101 892.818 22.2101C895.068 22.2101 896.598 23.9201 896.598 26.4401C896.598 28.9301 895.068 30.6401 892.818 30.6401Z" fill="#101828"/>
<path d="M910.129 34.2401C914.599 34.2401 917.269 31.1501 917.269 26.4401C917.269 21.7301 914.599 18.6401 910.189 18.6401C908.299 18.6401 906.829 19.3601 905.989 20.4701V12.3101H901.819V34.0001H905.989V32.3501C906.829 33.5201 908.389 34.2401 910.129 34.2401ZM909.469 30.6401C907.219 30.6401 905.749 28.9601 905.749 26.4401C905.749 23.8901 907.219 22.2101 909.469 22.2101C911.659 22.2101 913.159 23.8901 913.159 26.4401C913.159 28.9601 911.659 30.6401 909.469 30.6401Z" fill="#101828"/>
<path d="M924.249 18.6401C920.109 18.6401 917.649 21.0701 917.469 24.1001H921.189C921.249 22.8401 922.179 21.7001 924.009 21.7001C925.719 21.7001 926.709 22.5701 926.709 23.8301C926.709 24.4601 926.319 24.9401 925.569 24.9401H923.019C919.719 24.9401 917.499 26.7401 917.499 29.7101C917.499 32.2901 919.509 34.2401 922.449 34.2401C924.519 34.2401 926.199 33.3101 926.709 31.9001V34.0001H930.849V24.2801C930.849 20.8601 928.059 18.6401 924.249 18.6401ZM923.499 31.2101C922.329 31.2101 921.489 30.5201 921.489 29.5301C921.489 28.3601 922.389 27.5801 923.649 27.5801H926.709V27.7901C926.709 29.7101 925.539 31.2101 923.499 31.2101Z" fill="#101828"/>
<path d="M932.452 34.0001H936.622V12.3101H932.452V34.0001Z" fill="#101828"/>
<path d="M938.837 34.0001H947.417C951.857 34.0001 954.917 31.7201 954.917 27.7301C954.917 24.9701 953.297 23.2901 951.377 22.5401C952.607 21.8801 953.837 20.3801 953.837 18.4001C953.837 14.8901 950.987 13.0001 947.177 13.0001H938.837V34.0001ZM943.277 21.0101V16.5701H946.757C948.767 16.5701 949.667 17.3801 949.667 18.7901C949.667 20.2001 948.767 21.0101 946.847 21.0101H943.277ZM943.277 30.1001V24.8201H947.027C949.517 24.8201 950.627 25.7801 950.627 27.4901C950.627 29.2001 949.517 30.1001 947.027 30.1001H943.277Z" fill="#101828"/>
<path d="M962.171 18.6401C958.031 18.6401 955.571 21.0701 955.391 24.1001H959.111C959.171 22.8401 960.101 21.7001 961.931 21.7001C963.641 21.7001 964.631 22.5701 964.631 23.8301C964.631 24.4601 964.241 24.9401 963.491 24.9401H960.941C957.641 24.9401 955.421 26.7401 955.421 29.7101C955.421 32.2901 957.431 34.2401 960.371 34.2401C962.441 34.2401 964.121 33.3101 964.631 31.9001V34.0001H968.771V24.2801C968.771 20.8601 965.981 18.6401 962.171 18.6401ZM961.421 31.2101C960.251 31.2101 959.411 30.5201 959.411 29.5301C959.411 28.3601 960.311 27.5801 961.571 27.5801H964.631V27.7901C964.631 29.7101 963.461 31.2101 961.421 31.2101Z" fill="#101828"/>
<path d="M970.134 34.0001H974.334V25.7201C974.334 23.7701 975.624 22.3601 977.454 22.3601C979.194 22.3601 980.364 23.6801 980.364 25.5101V34.0001H984.564V24.5801C984.564 21.1001 982.344 18.6401 978.924 18.6401C976.854 18.6401 975.174 19.5101 974.334 20.9801V18.8801H970.134V34.0001Z" fill="#101828"/>
<path d="M996.534 34.0001H1001.57L995.064 24.8201L1001.09 18.8801H995.814L990.564 24.0401V12.3101H986.364V34.0001H990.564V29.2601L992.244 27.6101L996.534 34.0001Z" fill="#101828"/>
<g clip-path="url(#clip0_369_445)">
<path d="M1053.27 4.12169L1049.05 2.99072L1045.49 16.2654L1042.28 4.28093L1038.06 5.4119L1041.53 18.3602L1032.89 9.71841L1029.8 12.8083L1039.28 22.2874L1027.47 19.1243L1026.34 23.3451L1039.24 26.8011C1039.09 26.1642 1039.01 25.5006 1039.01 24.8187C1039.01 19.992 1042.93 16.0792 1047.75 16.0792C1052.58 16.0792 1056.49 19.992 1056.49 24.8187C1056.49 25.4962 1056.41 26.1557 1056.27 26.7889L1067.99 29.9297L1069.12 25.709L1056.17 22.2392L1067.98 19.0759L1066.85 14.8551L1053.9 18.3247L1062.54 9.68293L1059.45 6.59307L1050.1 15.9406L1053.27 4.12169Z" fill="#FF4405"/>
<path d="M1056.26 26.838C1055.89 28.368 1055.13 29.7424 1054.08 30.8435L1062.57 39.3357L1065.66 36.2458L1056.26 26.838Z" fill="#FF4405"/>
<path d="M1054 30.9323C1052.94 32.0159 1051.6 32.8245 1050.09 33.2413L1053.18 44.7735L1057.4 43.6425L1054 30.9323Z" fill="#FF4405"/>
<path d="M1049.93 33.2835C1049.24 33.4628 1048.51 33.5581 1047.75 33.5581C1046.94 33.5581 1046.16 33.4486 1045.42 33.2437L1042.33 44.7866L1046.55 45.9175L1049.93 33.2835Z" fill="#FF4405"/>
<path d="M1045.27 33.2012C1043.79 32.7638 1042.47 31.9448 1041.43 30.8581L1032.92 39.3711L1036.01 42.4609L1045.27 33.2012Z" fill="#FF4405"/>
<path d="M1041.36 30.7829C1040.34 29.6893 1039.6 28.3333 1039.25 26.827L1027.48 29.9781L1028.62 34.1989L1041.36 30.7829Z" fill="#FF4405"/>
</g>
<path d="M1094.52 12.9092V28.1192L1084.77 12.9092H1080.87V33.9092H1084.77V18.8192L1094.52 33.9092H1098.42V12.9092H1094.52Z" fill="#101828"/>
<path d="M1100.18 16.8392H1104.2V12.9092H1100.18V16.8392ZM1100.24 33.9092V18.9092H1104.14V33.9092H1100.24Z" fill="#101828"/>
<path d="M1120.92 26.4092C1120.92 21.2192 1117.23 18.7592 1113.33 18.7292C1109.4 18.6992 1105.77 21.2192 1105.77 26.4092C1105.77 31.5992 1109.4 34.1192 1113.33 34.0892C1116.9 34.0592 1119.36 32.4092 1120.5 29.6792L1117.47 28.4192C1116.54 30.2792 1115.07 30.9392 1113.33 30.9692C1111.83 30.9992 1110.12 30.2792 1109.76 27.6092H1120.83C1120.89 27.2192 1120.92 26.8292 1120.92 26.4092ZM1113.33 21.8192C1114.83 21.8492 1116.36 22.6592 1116.84 24.8192H1109.82C1110.33 22.6292 1111.86 21.7892 1113.33 21.8192Z" fill="#101828"/>
<path d="M1129.93 21.6992V18.7292H1127.47V14.7092L1123.57 15.9092V18.7292H1121.11V21.6992H1123.57V29.4692C1123.57 32.4092 1123.81 33.9092 1128.37 33.9092H1129.42V30.4892H1128.37C1127.65 30.4892 1127.47 30.3692 1127.47 29.4692V21.6992H1129.93Z" fill="#101828"/>
<path d="M1135.73 30.6392L1144.01 22.1792V18.9092H1131.59V22.1792H1139.63L1131.35 30.6392V33.9092H1144.1V30.6392H1135.73Z" fill="#101828"/>
<path d="M1145.49 29.6792L1149.42 29.0792C1149.69 30.5792 1151.46 31.1492 1152.54 31.1492C1153.65 31.1492 1155.57 30.9092 1155.57 29.1092C1155.57 25.5992 1145.94 29.9792 1145.94 23.2592C1145.94 18.9392 1150.95 18.6992 1152.54 18.6992C1154.04 18.6992 1158.39 18.9392 1159.29 22.4192L1155.57 23.1992C1155.24 21.6092 1153.56 21.3092 1152.66 21.3092C1151.76 21.3092 1149.84 21.5192 1149.84 23.2592C1149.84 26.7392 1159.47 22.2992 1159.47 29.1092C1159.47 33.6992 1154.19 34.0892 1152.54 34.0892C1151.04 34.0892 1146.27 33.6992 1145.49 29.6792Z" fill="#101828"/>
<path d="M1164.54 26.4092C1164.54 30.0692 1166.49 31.1792 1168.53 31.1492C1170.36 31.1192 1171.62 30.3692 1172.37 28.2692L1175.58 29.8292C1174.41 32.8892 1171.56 34.0592 1168.53 34.0892C1164.6 34.1192 1160.64 31.5992 1160.64 26.4092C1160.64 21.2192 1164.6 18.6992 1168.53 18.7292C1171.56 18.7592 1174.41 19.9292 1175.58 22.9892L1172.37 24.5492C1171.62 22.4492 1170.36 21.6992 1168.53 21.6692C1166.49 21.6392 1164.54 22.7492 1164.54 26.4092Z" fill="#101828"/>
<path d="M1186.05 18.6692C1184.04 18.6692 1182.21 19.7192 1181.04 21.9692V12.9092H1177.14V33.9092H1181.04V28.5992C1181.04 21.7292 1183.89 21.1592 1184.94 21.1592C1186.62 21.1592 1186.86 22.8992 1186.86 25.4492V33.9092H1190.76V25.4492C1190.76 22.2692 1190.25 18.6692 1186.05 18.6692Z" fill="#101828"/>
<path d="M1207.23 26.4092C1207.23 21.2192 1203.54 18.7592 1199.64 18.7292C1195.71 18.6992 1192.08 21.2192 1192.08 26.4092C1192.08 31.5992 1195.71 34.1192 1199.64 34.0892C1203.21 34.0592 1205.67 32.4092 1206.81 29.6792L1203.78 28.4192C1202.85 30.2792 1201.38 30.9392 1199.64 30.9692C1198.14 30.9992 1196.43 30.2792 1196.07 27.6092H1207.14C1207.2 27.2192 1207.23 26.8292 1207.23 26.4092ZM1199.64 21.8192C1201.14 21.8492 1202.67 22.6592 1203.15 24.8192H1196.13C1196.64 22.6292 1198.17 21.7892 1199.64 21.8192Z" fill="#101828"/>
</g>
<defs>
<clipPath id="clip0_369_445">
<rect width="44" height="44" fill="white" transform="translate(1026 2)"/>
</clipPath>
</defs>
</svg>
